<?xml version="1.0" encoding="utf-8"?>
<!-- Generator: Adobe Illustrator 15.1.0, SVG Export Plug-In . SVG Version: 6.00 Build 0)  -->
<!DOCTYPE svg PUBLIC "-//W3C//DTD SVG 1.1//EN" "http://www.w3.org/Graphics/SVG/1.1/DTD/svg11.dtd">
<svg version="1.1" xmlns="http://www.w3.org/2000/svg" xmlns:xlink="http://www.w3.org/1999/xlink" x="0px" y="0px" width="326.6px"
	 height="281.7px" viewBox="0 0 326.6 281.7" enable-background="new 0 0 326.6 281.7" xml:space="preserve">
<g id="Layer_2">
	<polygon fill="#33CBCC" points="326.6,89.1 163.3,0 0,89.1 8,103.7 16.8,98.9 16.8,281.7 309.8,281.7 309.8,98.9 318.6,103.7 	"/>
</g>
<g id="Layer_3">
	<path fill="#FFFFFF" d="M169.5,41.4c-4.2,0-5.8,3-6,3.4c-0.2-0.4-1.9-3.4-6-3.4c-4.5,0-8.4,3.8-8.4,9.3c0,10.1,14.5,17.3,14.5,17.3
		S178,60.8,178,50.7C178,45.3,174,41.4,169.5,41.4z M163.9,49.4c0.4-2,1.7-3.4,2.9-3.1c1.2,0.2,1.9,2,1.6,4c-0.4,2-1.7,3.4-2.9,3.1
		C164.2,53.1,163.5,51.3,163.9,49.4z M160,46.3c1.2-0.2,2.6,1.2,2.9,3.1c0.4,2-0.3,3.7-1.6,4c-1.2,0.2-2.6-1.2-2.9-3.1
		C158.1,48.3,158.8,46.5,160,46.3z M154.9,55.5c-1-1.4-0.9-3.1,0.1-3.8c1-0.6,2.6,0,3.5,1.4c1,1.4,0.9,3.1-0.1,3.8
		C157.5,57.6,155.9,57,154.9,55.5z M163.7,62.1c-2,0-5.7,2.8-5.7-1.2c0-2.1,2.8-5.9,5.6-5.9c3.1,0,5.8,4,5.8,6.1
		C169.4,64.7,165.7,62.1,163.7,62.1z M172.1,55.5c-1,1.4-2.5,2.1-3.5,1.4c-1-0.6-1-2.3-0.1-3.8c1-1.4,2.5-2.1,3.5-1.4
		C173.1,52.4,173.1,54.1,172.1,55.5z"/>
</g>
</svg>
