<?xml version="1.0" encoding="utf-8"?>
<!-- Generator: Adobe Illustrator 15.1.0, SVG Export Plug-In . SVG Version: 6.00 Build 0)  -->
<!DOCTYPE svg PUBLIC "-//W3C//DTD SVG 1.1//EN" "http://www.w3.org/Graphics/SVG/1.1/DTD/svg11.dtd">
<svg version="1.1" xmlns="http://www.w3.org/2000/svg" xmlns:xlink="http://www.w3.org/1999/xlink" x="0px" y="0px" width="326.6px"
	 height="281.7px" viewBox="0 0 326.6 281.7" enable-background="new 0 0 326.6 281.7" xml:space="preserve">
<g id="Layer_2">
	<polygon points="326.6,89.1 163.3,0 0,89.1 8,103.7 16.8,98.9 16.8,281.7 309.8,281.7 309.8,98.9 318.6,103.7 	"/>
</g>
<g id="Layer_4">
	<g>
		<path fill="#FFFFFF" d="M100.7,86h-9.8v-3.4c0-1.6-0.1-2.6-0.4-3s-0.7-0.7-1.3-0.7c-0.6,0-1.1,0.3-1.4,0.9
			c-0.3,0.6-0.5,1.5-0.5,2.7c0,1.5,0.2,2.7,0.6,3.5c0.4,0.8,1.4,1.7,3,2.8c4.7,3.2,7.7,5.8,8.9,7.8c1.2,2,1.8,5.3,1.8,9.8
			c0,3.3-0.3,5.7-1,7.3c-0.7,1.6-2,2.9-3.9,3.9c-1.9,1.1-4.2,1.6-6.8,1.6c-2.8,0-5.3-0.6-7.3-1.8c-2-1.2-3.3-2.8-3.9-4.6
			c-0.6-1.9-0.9-4.6-0.9-8v-3h9.8v5.6c0,1.7,0.1,2.8,0.4,3.3c0.3,0.5,0.8,0.7,1.5,0.7s1.2-0.3,1.6-0.9c0.3-0.6,0.5-1.6,0.5-2.8
			c0-2.7-0.3-4.5-1-5.3c-0.7-0.8-2.3-2.2-5-4.2c-2.6-2-4.4-3.4-5.2-4.3c-0.9-0.9-1.6-2.1-2.1-3.7c-0.6-1.6-0.8-3.6-0.8-6
			c0-3.5,0.4-6.1,1.2-7.8c0.8-1.6,2.1-2.9,3.9-3.8c1.8-0.9,3.9-1.4,6.4-1.4c2.8,0,5.1,0.5,7,1.5c1.9,1,3.2,2.3,3.9,3.8
			c0.6,1.5,0.9,4.1,0.9,7.8V86z"/>
	</g>
	<g>
		<path fill="#FFFFFF" d="M131.1,67.2v51.9h-11.9V97.3h-3.6v21.8h-11.9V67.2h11.9v18.6h3.6V67.2H131.1z"/>
	</g>
	<g>
		<path fill="#FFFFFF" d="M133.4,63.8h19.9v11.1h-8v10.5h7.5v10.5h-7.5v12.2h8.8v11.1h-20.7V63.8z"/>
	</g>
	<g>
		<path fill="#FFFFFF" d="M168.9,56v50.5h7v12.6h-18.6V56H168.9z"/>
	</g>
	<g>
		<path fill="#FFFFFF" d="M196.4,64.1v11h-6.2v44h-10.4v-44h-6.2v-11H196.4z"/>
	</g>
	<g>
		<path fill="#FFFFFF" d="M198.4,67.2h19.9v10.4h-8v9.8h7.5v9.9h-7.5v11.4h8.8v10.4h-20.7V67.2z"/>
	</g>
	<g>
		<path fill="#FFFFFF" d="M221.9,73h7.5c5,0,8.4,0.2,10.2,0.7c1.8,0.4,3.2,1.6,4.3,3.3c1.1,1.8,1.7,4.7,1.7,8.6c0,3.6-0.4,6-1.2,7.2
			c-0.8,1.2-2.3,2-4.7,2.2c2.1,0.6,3.5,1.4,4.2,2.4s1.2,1.9,1.3,2.7c0.2,0.8,0.3,3.1,0.3,6.8v12.2h-9.8v-15.3c0-2.5-0.2-4-0.5-4.6
			s-1.2-0.9-2.7-0.9v20.8h-10.6V73z M232.5,80.9v10.3c1.2,0,2-0.2,2.5-0.6c0.5-0.4,0.7-1.6,0.7-3.6v-2.5c0-1.5-0.2-2.4-0.7-2.9
			C234.6,81.1,233.7,80.9,232.5,80.9z"/>
	</g>
</g>
<g id="Layer_6">
	<g>
		<polygon fill="#FFFFFF" points="83.9,148.5 60.7,148.5 60.7,130.6 44.2,130.6 44.2,179.3 60.7,179.3 60.7,160.3 83.9,160.3 
			83.9,179.3 101,179.3 101,130.6 83.9,130.6 		"/>
		
			<ellipse transform="matrix(0.8357 -0.5492 0.5492 0.8357 -64.8542 96.2809)" fill="#FFFFFF" cx="128.5" cy="156.5" rx="2.8" ry="4.2"/>
		<path fill="#FFFFFF" d="M137.6,157.4c-3.8,0-7.5,5.1-7.5,7.9c0,5.2,4.9,1.6,7.6,1.6c2.7,0,7.6,3.5,7.6-1.3
			C145.3,162.8,141.7,157.4,137.6,157.4z"/>
		
			<ellipse transform="matrix(-0.1893 0.9819 -0.9819 -0.1893 315.4493 40.5537)" fill="#FFFFFF" cx="141" cy="150.5" rx="4.8" ry="3.1"/>
		
			<ellipse transform="matrix(0.1891 0.982 -0.982 0.1891 256.2352 -9.3114)" fill="#FFFFFF" cx="133.8" cy="150.5" rx="4.8" ry="3.1"/>
		<path fill="#FFFFFF" d="M161.3,135.8c-5.8-4.7-13.4-7-22.6-7c-10,0-17.8,2.5-23.5,7.4c-5.6,5-8.5,11.3-8.5,18.9
			c0,8,2.9,14.3,8.8,19.1c5.9,4.8,13.5,7.1,22.9,7.1c9.3,0,16.9-2.4,22.7-7.3c5.9-4.9,8.8-11.4,8.8-19.4
			C170.1,146.8,167.1,140.5,161.3,135.8z M137.7,174.6c0,0-19.3-9.5-19.3-22.9c0-7.2,5.2-12.3,11.2-12.3c5.5,0,7.7,3.9,8,4.5
			c0.3-0.5,2.4-4.5,7.9-4.5c6,0,11.2,5.1,11.2,12.3C156.7,165.1,137.7,174.6,137.7,174.6z"/>
		
			<ellipse transform="matrix(0.5491 -0.8358 0.8358 0.5491 -64.7196 193.1087)" fill="#FFFFFF" cx="146.6" cy="156.5" rx="4.2" ry="2.8"/>
		<path fill="#FFFFFF" d="M213.5,130.6h-36.9v48.6h17.6v-16.2h19.3c6.1,0,16-3.8,16-15.9C229.5,135.3,220.2,130.6,213.5,130.6z
			 M205.2,153h-11.3v-11.2h12c5.3,0,7.3,2.7,7.3,5.7C213.2,150.7,211,153,205.2,153z"/>
		<polygon fill="#FFFFFF" points="283.6,141.9 283.6,130.6 235.7,130.6 235.7,179.3 283.6,179.3 283.6,167.6 252,167.6 252,159.7 
			281.6,159.7 281.6,148.9 252,148.9 252,141.9 		"/>
	</g>
</g>
<g id="Layer_7">
	<rect x="52.8" y="227.4" fill="#FFFFFF" width="220.3" height="3.7"/>
	<g>
		<path fill="#FFFFFF" d="M71.8,222.5v-29.2h10.7c1.9,0,3.3,0.1,4.3,0.3c1.4,0.2,2.6,0.7,3.5,1.4c0.9,0.7,1.7,1.6,2.3,2.8
			c0.6,1.2,0.9,2.5,0.9,4c0,2.5-0.8,4.6-2.3,6.3s-4.3,2.6-8.3,2.6h-7.3v11.9H71.8z M75.6,207.2h7.3c2.4,0,4.1-0.5,5.1-1.4
			s1.5-2.2,1.5-3.9c0-1.2-0.3-2.3-0.9-3.1s-1.4-1.4-2.4-1.7c-0.6-0.2-1.8-0.3-3.5-0.3h-7.2V207.2z"/>
		<path fill="#FFFFFF" d="M98.3,222.5v-29.2h20.4v3.4H102v8.9h15.6v3.4H102v9.9h17.4v3.4H98.3z"/>
		<path fill="#FFFFFF" d="M131.7,222.5v-25.7h-9.3v-3.4h22.4v3.4h-9.4v25.7H131.7z"/>
		<path fill="#FFFFFF" d="M157.6,213.2l3.5-0.3c0.2,1.5,0.6,2.7,1.2,3.6c0.6,0.9,1.6,1.7,2.8,2.3c1.3,0.6,2.7,0.9,4.3,0.9
			c1.4,0,2.7-0.2,3.8-0.7c1.1-0.4,1.9-1,2.4-1.8c0.5-0.8,0.8-1.6,0.8-2.5c0-0.9-0.3-1.7-0.8-2.4c-0.5-0.7-1.4-1.3-2.5-1.7
			c-0.8-0.3-2.4-0.8-5-1.4c-2.6-0.6-4.4-1.3-5.5-1.8c-1.3-0.7-2.4-1.6-3-2.7c-0.7-1.1-1-2.3-1-3.6c0-1.5,0.4-2.8,1.2-4.1
			c0.8-1.3,2-2.3,3.5-2.9c1.6-0.7,3.3-1,5.2-1c2.1,0,3.9,0.3,5.5,1c1.6,0.7,2.8,1.7,3.7,3.1c0.9,1.4,1.3,2.9,1.4,4.6l-3.6,0.3
			c-0.2-1.8-0.8-3.2-2-4.2c-1.1-0.9-2.8-1.4-4.9-1.4c-2.3,0-3.9,0.4-4.9,1.3c-1,0.9-1.6,1.9-1.6,3.1c0,1,0.4,1.9,1.1,2.6
			c0.7,0.7,2.6,1.4,5.6,2.1c3,0.7,5.1,1.3,6.3,1.9c1.6,0.8,2.9,1.8,3.6,3c0.8,1.2,1.2,2.6,1.2,4.1c0,1.6-0.4,3-1.3,4.4
			s-2.1,2.4-3.7,3.2s-3.4,1.1-5.4,1.1c-2.6,0-4.7-0.4-6.4-1.2c-1.7-0.8-3.1-1.9-4.1-3.5C158.2,216.9,157.7,215.1,157.6,213.2z"/>
		<path fill="#FFFFFF" d="M185.4,222.5v-29.2h3.7v12h14.7v-12h3.7v29.2h-3.7v-13.8h-14.7v13.8H185.4z"/>
		<path fill="#FFFFFF" d="M212.6,208.3c0-4.8,1.3-8.6,3.8-11.4s5.8-4.1,9.8-4.1c2.6,0,5,0.6,7.1,1.9s3.7,3.1,4.8,5.4
			c1.1,2.3,1.6,4.9,1.6,7.8c0,3-0.6,5.6-1.7,7.9s-2.8,4.1-4.9,5.3c-2.1,1.2-4.4,1.8-6.9,1.8c-2.7,0-5-0.7-7.1-2
			c-2.1-1.3-3.7-3.1-4.8-5.4C213.2,213.3,212.6,210.9,212.6,208.3z M216.5,208.4c0,3.5,0.9,6.3,2.7,8.3c1.8,2,4.1,3,6.9,3
			c2.8,0,5.1-1,7-3.1s2.7-4.9,2.7-8.7c0-2.4-0.4-4.4-1.2-6.2c-0.8-1.8-1.9-3.1-3.4-4.1c-1.5-1-3.2-1.5-5-1.5c-2.6,0-4.9,0.9-6.8,2.8
			C217.4,200.9,216.5,204,216.5,208.4z"/>
		<path fill="#FFFFFF" d="M244.5,222.5v-29.2h10.7c1.9,0,3.3,0.1,4.3,0.3c1.4,0.2,2.6,0.7,3.5,1.4s1.7,1.6,2.3,2.8
			c0.6,1.2,0.9,2.5,0.9,4c0,2.5-0.8,4.6-2.3,6.3c-1.5,1.7-4.3,2.6-8.3,2.6h-7.3v11.9H244.5z M248.2,207.2h7.3c2.4,0,4.1-0.5,5.1-1.4
			s1.5-2.2,1.5-3.9c0-1.2-0.3-2.3-0.9-3.1s-1.4-1.4-2.4-1.7c-0.6-0.2-1.8-0.3-3.5-0.3h-7.2V207.2z"/>
	</g>
</g>
</svg>
